<svg width="44" height="28" viewBox="0 0 44 28" fill="none" xmlns="http://www.w3.org/2000/svg">
<path d="M43.4495 27.8297H43.4164C39.5902 27.8297 34.8931 27.751 33.5754 27.7307L29.5486 20.9897L27.5479 24.4833L27.5834 24.5011L29.6679 25.5802L29.5536 25.6233L23.7343 27.9084L24.1634 23.2392L24.2904 21.8936L26.0372 23.4652C26.7176 22.2541 27.3473 21.1395 27.4641 20.9262C27.6723 20.5682 28.8148 18.6005 29.4953 17.4351C29.513 17.4605 29.5283 17.4884 29.546 17.5164L29.8253 17.9632C30.6479 19.2835 31.5036 20.6647 31.7169 21.01C32.7324 22.6603 33.7226 24.3234 34.6875 25.9991L40.2097 25.9813L35.2283 17.4224L30.2519 8.86863L25.3618 17.4047C25.3535 17.4229 25.3442 17.4407 25.3339 17.458L21.5 24.1736L21.4772 24.2117L21.0938 23.5363L19.6542 20.9973L16.7318 15.9955L13.8704 20.977C13.8626 20.9947 13.8533 21.0117 13.8425 21.0278L9.87407 27.9287L0.104098 27.9439H0L0.363073 27.3117L7.19545 15.3202L7.22338 15.2719L15.8965 0.0330067L15.9168 0L16.2977 0.652516L20.4768 7.82765L21.4035 9.42213L23.0463 6.55309L20.8627 5.62637L26.6745 2.83349L26.5297 8.85086L24.6585 7.45189L22.4725 11.2832L21.4162 13.1316L20.3473 11.268L20.294 11.1715L15.96 3.72721L8.82039 16.1885L8.795 16.2393L3.23211 26.093L8.81785 26.0753L12.2429 20.1112C12.2519 20.0944 12.2621 20.0783 12.2734 20.063L16.6887 12.3496L17.1051 13.0249L21.2487 20.0833L21.4772 20.4768L23.1554 17.5443L23.7343 16.5287L23.7648 16.5033L30.2823 5.20236C30.4017 5.41055 30.5362 5.62637 30.6556 5.84726L36.8151 16.5033L43.1981 27.4209L43.4215 27.8068L43.4495 27.8297Z" fill="#3B5998"/>
</svg>
