<svg width="118" height="28" viewBox="0 0 118 28" fill="none" xmlns="http://www.w3.org/2000/svg">
<g clip-path="url(#clip0_6704_36)">
<path fill-rule="evenodd" clip-rule="evenodd" d="M14.927 21.8718H9.77529V14.4835C9.77529 12.5182 9.30011 11.4332 7.74195 11.4339C6.25043 11.4339 5.36938 12.5182 5.36938 14.2803V21.8718H0.150391V7.50179H5.37004V8.99331C6.31907 7.70506 7.80993 7.09526 9.50471 7.09526C13.3688 7.09526 14.9276 9.80638 14.9276 13.1953V21.8718H14.927V21.8718ZM32.4147 14.6202C32.4147 18.8895 28.8232 22.279 24.6878 22.279C20.4179 22.279 16.893 19.0261 16.893 14.6188C16.893 10.3489 20.4852 7.09526 24.6199 7.09526C28.8898 7.09592 32.4147 10.2136 32.4147 14.6202ZM27.399 14.6195C27.3996 12.9934 26.5179 11.1626 24.6205 11.1626C22.8578 11.1626 21.9774 12.9934 21.9774 14.6195C21.9774 16.3143 22.8584 18.1444 24.6885 18.1444C26.5179 18.1444 27.399 16.3143 27.399 14.6195ZM50.5802 21.6013C50.5802 25.9399 47.5978 28.2438 42.7853 28.2438C39.803 28.2438 37.0918 27.3627 35.8036 26.617L37.4984 23.2287C38.7866 23.9059 40.4807 24.381 42.4461 24.381C44.7507 24.381 45.4285 23.1614 45.4285 21.7372V20.2457C44.6834 21.1947 43.1239 22.0771 41.0905 22.0771C37.0232 22.0758 34.3121 18.6196 34.3121 14.6202C34.3121 10.6215 37.0232 7.09659 41.0905 7.09659C42.7847 7.09659 44.6154 7.84234 45.4285 8.92733V7.50312H50.5802V21.6013V21.6013ZM45.4292 14.6868C45.4292 12.7221 44.2089 11.2986 42.4468 11.2986C40.7527 11.2986 39.4644 12.7221 39.4644 14.6868C39.4644 16.7215 40.7527 18.0084 42.4474 18.0084C44.2089 18.0084 45.4292 16.6535 45.4292 14.6868V14.6868ZM68.0006 21.8718H62.8489V20.3817C61.8999 21.6692 60.4097 22.2797 58.7142 22.2797C54.8508 22.2797 53.292 19.5686 53.292 16.111V7.50246H58.443V14.8914C58.443 16.8568 58.9175 17.9411 60.477 17.9411C61.9672 17.9411 62.8489 16.8568 62.8489 15.0267V7.50246H68.0006V21.8718V21.8718ZM84.3353 19.1607C82.5739 21.3307 80.8118 22.2797 78.0327 22.2797C73.4915 22.2797 70.1019 19.0254 70.1019 14.6868C70.1019 10.5521 73.4235 7.09592 78.0327 7.09526C80.4732 7.09526 82.3019 7.90899 83.8614 9.73907L80.8791 12.5182C80.0653 11.6371 79.1163 11.1626 78.0327 11.1626C76.2026 11.1626 74.9137 12.6541 74.9137 14.6868C74.9137 16.4496 76.1346 18.213 78.0327 18.213C79.3876 18.213 80.066 17.6705 80.8791 16.7215L84.3353 19.1607V19.1607ZM100.942 21.8718H95.7236V14.4835C95.7236 12.5182 95.2484 11.4339 93.6903 11.4339C92.1988 11.4339 91.3171 12.5175 91.3171 14.2803V21.8718H86.166V-0.360352L91.3171 -0.291704V8.99398C92.2661 7.70573 93.7576 7.09592 95.4524 7.09592C99.3158 7.09526 100.943 9.80705 100.943 13.1966L100.942 21.8718ZM103.856 21.8718L103.858 7.50179H109.009L109.008 21.8712H103.856V21.8718V21.8718Z" fill="#3B5998"/>
<path fill-rule="evenodd" clip-rule="evenodd" d="M117.276 10.4849C117.278 10.8947 117.198 11.3006 117.042 11.6795C116.885 12.0583 116.656 12.4026 116.366 12.6924C116.076 12.9822 115.732 13.2118 115.353 13.3681C114.974 13.5244 114.568 13.6043 114.159 13.6032C112.464 13.6032 111.041 12.1796 111.041 10.4855C111.04 10.0757 111.12 9.66974 111.276 9.29089C111.432 8.91205 111.662 8.56783 111.951 8.27803C112.241 7.98823 112.585 7.75856 112.964 7.60225C113.343 7.44594 113.749 7.36606 114.159 7.3672C115.921 7.3672 117.276 8.72276 117.276 10.4849Z" fill="#3B5998"/>
</g>
<defs>
<clipPath id="clip0_6704_36">
<rect width="118" height="28" fill="white"/>
</clipPath>
</defs>
</svg>
