<svg width="150" height="28" viewBox="0 0 150 28" fill="none" xmlns="http://www.w3.org/2000/svg">
<g clip-path="url(#clip0_6704_40)">
<path fill-rule="evenodd" clip-rule="evenodd" d="M29.4158 4.15578L28.9363 6.71385H29.0165C29.6564 5.2744 31.0148 3.91602 32.7734 3.91602C33.4133 3.91602 34.0524 3.99537 34.6122 4.15578L33.6523 7.99289C33.0934 7.51336 32.4534 7.43315 31.6539 7.43315C29.8954 7.43315 28.7767 9.03216 28.4568 10.8701L27.2579 16.5443H23.0215L24.9405 7.4323C25.1802 6.31282 25.3398 5.27355 25.42 4.15493H29.4158V4.15578V4.15578Z" fill="#3B5998"/>
<path fill-rule="evenodd" clip-rule="evenodd" d="M39.4866 16.7862C34.9302 16.7862 33.0922 14.3101 33.0922 11.1914C33.0922 6.79538 36.2092 3.91732 41.0054 3.91732C45.2418 3.91732 47.4799 6.31585 47.4799 9.43281C47.4799 14.5481 44.1232 16.7862 39.4866 16.7862V16.7862ZM40.845 6.87473C38.7664 6.87473 37.4874 9.11284 37.4874 11.1112C37.4874 12.7102 38.3663 13.8297 39.8057 13.8297C41.804 13.8297 43.0831 12.1505 43.0831 9.35261C43.0839 8.07357 42.4448 6.87473 40.845 6.87473V6.87473ZM50.8375 0H58.1918C59.9512 0 62.9078 0.639093 62.9078 3.75691C62.9078 5.99587 61.1492 7.67338 58.5118 7.99336C60.4299 8.31333 61.7891 9.35175 61.7891 11.1905C61.7891 14.7077 58.7515 16.3869 54.9144 16.4671L47.4006 16.5456L50.8375 0V0ZM53.8751 6.55476H55.5535C57.3923 6.55476 58.5109 5.75525 58.5109 4.63577C58.5109 3.35673 57.3914 3.11697 55.7131 3.11697H54.5936L53.8751 6.55476ZM52.4357 13.4295H53.6345C55.8726 13.4295 57.3121 12.7895 57.3121 11.1914C57.3121 9.75278 56.2728 9.51302 54.2745 9.51302H53.2352L52.4357 13.4295ZM75.5369 13.2691C75.298 14.3877 75.1376 15.4278 74.978 16.5456H71.0615L71.3815 14.5473H71.3013C70.1025 15.9074 68.8234 16.7854 66.5853 16.7854C64.1074 16.7854 62.7482 14.9474 62.7482 12.5498C62.7482 11.7503 62.8284 11.2707 63.0682 9.91149L64.1877 4.15624H68.5837L67.3848 9.9917C67.3046 10.5514 67.1451 11.1905 67.1451 11.8305C67.1451 12.5498 67.6246 13.2691 68.8234 13.2691C70.582 13.2691 71.7015 11.6709 71.9404 9.83214L73.1392 4.15709H77.455L75.5369 13.2691ZM77.2972 13.2691C78.4158 13.7495 79.6155 13.9892 80.7333 13.9892C81.4534 13.9892 83.1318 13.9082 83.1318 12.8698C83.1318 11.1112 78.0958 11.99 78.0958 7.914C78.0958 5.03595 81.4543 3.91732 84.3306 3.91732C85.3707 3.91732 86.8887 4.15709 88.4083 4.63663L87.5286 7.43447C86.41 6.95494 85.3707 6.71517 84.0925 6.71517C83.1326 6.71517 82.0942 6.95494 82.0942 7.83465C82.0942 9.1939 87.4484 9.11369 87.4484 12.1513C87.4484 15.2691 84.8101 16.7871 81.6138 16.7871C79.7742 16.8673 77.7758 16.5473 76.4175 16.1488L77.2972 13.2691V13.2691ZM90.486 4.15624H94.8018L92.2437 16.5456H87.928L90.486 4.15624V4.15624ZM96.2404 7.43447C96.4802 6.31499 96.6406 5.27571 96.8002 4.15709H100.717L100.398 6.15543H100.477C101.677 4.79618 102.956 3.91732 105.193 3.91732C107.671 3.91732 109.031 5.75611 109.031 8.15377C109.031 8.95328 108.951 9.43281 108.711 10.7912L107.591 16.5456H103.195L104.315 10.711C104.475 10.1513 104.635 9.51216 104.635 8.87222C104.635 8.15292 104.155 7.43362 102.956 7.43362C101.197 7.43362 100.078 9.03263 99.8386 10.8706L98.5587 16.5448H94.3223L96.2404 7.43447V7.43447ZM120.302 16.148C118.863 16.5465 117.263 16.7862 115.985 16.7862C111.909 16.7862 109.671 14.3101 109.671 11.1914C109.671 8.31333 111.589 3.91732 117.023 3.91732C120.302 3.91732 122.779 5.51634 122.779 9.27325C122.779 9.75278 122.619 10.8723 122.459 11.5916H113.667C113.747 12.95 114.387 13.9901 117.023 13.9901C118.143 13.9901 119.662 13.6701 120.861 13.1095L120.302 16.148V16.148ZM119.182 9.19304C119.182 7.8338 118.703 6.71517 117.104 6.71517C115.266 6.71517 114.227 7.99421 113.987 9.19304H119.182ZM123.099 13.2691C124.138 13.7495 125.337 13.9892 126.535 13.9892C127.256 13.9892 128.934 13.9082 128.934 12.8698C128.934 11.1112 123.818 11.99 123.818 7.914C123.818 5.03595 127.176 3.91732 130.054 3.91732C131.173 3.91732 132.612 4.15709 134.211 4.63663L133.251 7.43447C132.212 6.95494 131.172 6.71517 129.894 6.71517C128.934 6.71517 127.896 6.95494 127.896 7.83465C127.896 9.1939 133.17 9.11369 133.17 12.1513C133.17 15.2691 130.612 16.7871 127.416 16.7871C125.578 16.8673 123.578 16.5473 122.22 16.1488L123.099 13.2691V13.2691ZM133.891 13.2691C134.931 13.7495 136.129 13.9892 137.327 13.9892C138.047 13.9892 139.725 13.9082 139.725 12.8698C139.725 11.1112 134.611 11.99 134.611 7.914C134.611 5.03595 137.967 3.91732 140.846 3.91732C141.965 3.91732 143.404 4.15709 145.002 4.63663L144.044 7.43447C143.003 6.95494 141.965 6.71517 140.685 6.71517C139.725 6.71517 138.687 6.95494 138.687 7.83465C138.687 9.1939 143.963 9.11369 143.963 12.1513C143.963 15.2691 141.405 16.7871 138.207 16.7871C136.369 16.8673 134.371 16.5473 133.011 16.1488L133.891 13.2691V13.2691ZM17.1047 0H12.7078L11.0295 7.59318H15.4263L16.3854 3.11697H17.7438C18.8633 3.11697 19.9827 3.43694 19.9827 5.03595C19.9827 7.03429 18.3837 7.59403 16.6251 7.59403H15.4263L10.1506 11.9107L9.11133 16.5465H13.5875L14.7864 10.7119H17.0245C21.0212 10.7119 24.3787 8.6333 24.3787 4.55727C24.3787 0.31997 20.702 0 17.1047 0V0Z" fill="#3B5998"/>
<path fill-rule="evenodd" clip-rule="evenodd" d="M1.91813 7.59473H11.031L0 16.5463L1.91813 7.59473V7.59473Z" fill="#3B5998"/>
<path fill-rule="evenodd" clip-rule="evenodd" d="M91.2861 0H95.5225L94.8826 3.11782H90.6461L91.2861 0ZM146.281 2.55808C146.281 1.59816 147 0.878858 147.96 0.878858C148.839 0.878858 149.558 1.59816 149.558 2.55808C149.558 3.51714 148.839 4.23644 147.96 4.23644C147 4.23644 146.281 3.51714 146.281 2.55808ZM147.96 4.55641C148.223 4.55903 148.484 4.50914 148.728 4.40964C148.971 4.31014 149.192 4.16305 149.379 3.97696C149.565 3.79087 149.712 3.56953 149.811 3.3259C149.911 3.08226 149.961 2.82123 149.958 2.55808C149.958 1.35839 149.08 0.558885 147.96 0.558885C146.839 0.558885 145.881 1.35839 145.881 2.55808C145.882 3.67756 146.84 4.55641 147.96 4.55641ZM147.48 2.71763H147.96L148.519 3.67755H148.92L148.28 2.71763C148.6 2.63743 148.839 2.47787 148.839 2.07769C148.839 1.59816 148.6 1.35839 148.039 1.35839H147.159V3.6767H147.479V2.71763H147.48V2.71763ZM147.48 2.39851V1.67836H147.96C148.28 1.67836 148.519 1.75857 148.519 1.99833C148.519 2.39851 148.199 2.39851 147.96 2.39851H147.48ZM11.2697 27.5783C10.71 27.5783 10.2305 27.5783 9.83029 27.498C9.43096 27.3376 9.11099 27.2583 8.79102 27.0979L9.11099 25.6593H9.27055C9.59052 25.8973 9.91049 26.1379 10.3098 26.2975C10.6298 26.3777 11.0291 26.4579 11.5095 26.4579C11.9088 26.4579 12.2288 26.4579 12.4686 26.2975C12.7083 26.2173 12.7885 25.9775 12.7885 25.7395C12.7885 25.6593 12.7885 25.6593 12.7083 25.5791C12.7083 25.4989 12.6281 25.4186 12.5488 25.3393C12.4686 25.3393 12.309 25.2591 12.1486 25.1789C11.989 25.1789 11.7493 25.0987 11.5095 25.0185C11.1895 24.9383 10.9498 24.8581 10.71 24.6985C10.4702 24.6183 10.2305 24.5381 10.0701 24.3785C9.90964 24.2983 9.83029 24.1388 9.66987 23.899C9.59052 23.7386 9.59052 23.5807 9.59052 23.341C9.59052 22.701 9.83029 22.2215 10.39 21.9007C10.9498 21.5005 11.6691 21.3409 12.5488 21.3409C13.0283 21.3409 13.4276 21.3409 13.8278 21.4211C14.228 21.5013 14.5471 21.5815 14.8671 21.7411L14.5471 23.1012H14.3867C14.1313 22.9235 13.8642 22.7633 13.5872 22.6217C13.187 22.4612 12.8679 22.4612 12.3884 22.4612C11.989 22.4612 11.7484 22.4612 11.5095 22.6217C11.2697 22.7019 11.1895 22.8614 11.1895 23.1012V23.341C11.2697 23.4212 11.3499 23.4212 11.4293 23.4997C11.5383 23.6007 11.6808 23.6579 11.8295 23.6601C11.9899 23.7403 12.2288 23.8205 12.4694 23.8998C13.1887 24.0603 13.6683 24.3 13.908 24.5398C14.228 24.7796 14.3876 25.0995 14.3876 25.4997C14.3876 25.8982 14.3074 26.1379 14.1478 26.4579C13.976 26.7091 13.759 26.9261 13.5078 27.0979C13.1879 27.2583 12.8679 27.4178 12.4686 27.498C12.1495 27.5783 11.7493 27.5783 11.2697 27.5783V27.5783ZM17.1854 24.62C17.2656 24.3 17.4252 24.1405 17.6649 23.8998C17.8253 23.7394 18.0651 23.6601 18.3851 23.6601C18.6249 23.6601 18.8646 23.7403 18.944 23.8998C19.1044 23.98 19.1837 24.1396 19.1837 24.3794V24.4596C19.1837 24.5398 19.1837 24.5398 19.1035 24.62H17.1854ZM19.0233 27.498C19.3433 27.4178 19.6633 27.3376 19.9022 27.2583L20.2222 26.0586H20.0617C19.822 26.219 19.5822 26.2984 19.2622 26.3786C19.0225 26.539 18.7025 26.539 18.3834 26.539C17.9038 26.539 17.5839 26.4588 17.3441 26.2992C17.1043 26.1388 17.0241 25.899 17.0241 25.5808V25.5006H20.3817C20.4619 25.3401 20.5421 25.1004 20.5421 24.9408C20.6223 24.7804 20.6223 24.6208 20.6223 24.3811C20.6223 23.9015 20.4619 23.5014 20.0626 23.1831C19.7426 22.9433 19.2631 22.7829 18.5438 22.7829C18.0643 22.7829 17.6641 22.8631 17.345 23.0227C16.9456 23.1831 16.6257 23.3427 16.3859 23.5824C16.1461 23.9007 15.9064 24.1405 15.8262 24.5406C15.6657 24.8606 15.5864 25.2608 15.5864 25.6601C15.5864 26.2984 15.8262 26.7787 16.2263 27.0987C16.6265 27.4187 17.2656 27.5783 17.9849 27.5783C18.3842 27.5783 18.7042 27.5783 19.0233 27.498ZM25.7376 24.3H25.6574C25.5781 24.3 25.4979 24.3 25.3375 24.2198H25.0175C24.8571 24.2198 24.6173 24.2198 24.4578 24.3C24.2973 24.3 24.0584 24.3802 23.898 24.4604L23.1787 27.4989H21.7393L22.7785 22.9425H24.218L24.0576 23.5824C24.3775 23.3427 24.6165 23.1822 24.9364 23.1029C25.1762 22.9425 25.4962 22.9425 25.7359 22.9425H26.0568L25.7376 24.3V24.3ZM32.213 22.9416L29.4152 27.498H27.7368L27.0167 22.9416H28.5363L28.8555 26.0586L30.614 22.9416H32.213ZM34.7711 22.9416L33.7318 27.498H32.2924L33.3317 22.9416H34.7711ZM35.2507 21.102L35.0109 22.2215H33.4119L33.6516 21.102H35.2507ZM37.8881 27.5783C37.5681 27.5783 37.249 27.5783 37.0092 27.498C36.7695 27.4178 36.5297 27.2583 36.2899 27.0979C36.1304 26.9375 35.97 26.7779 35.8104 26.5381C35.7117 26.2556 35.6578 25.9593 35.6508 25.6601C35.6508 25.2599 35.7302 24.8598 35.8906 24.5406C36.0502 24.2207 36.2899 23.9007 36.5306 23.6609C36.8505 23.3427 37.1705 23.1822 37.5698 23.0227C37.9761 22.8588 38.4108 22.7773 38.8489 22.7829C39.1688 22.7829 39.4086 22.7829 39.7277 22.8631C39.9675 22.9433 40.2073 23.0235 40.447 23.1831L40.127 24.3811H39.9666C39.8 24.2218 39.6115 24.087 39.4069 23.9809C39.1671 23.9007 39.0076 23.8205 38.6876 23.8205C38.2883 23.8205 37.8881 23.9809 37.5681 24.3C37.3283 24.62 37.1688 25.0202 37.1688 25.5799C37.1688 25.8982 37.249 26.1379 37.4086 26.2984C37.6483 26.4588 37.8881 26.5381 38.2081 26.5381C38.528 26.5381 38.7678 26.5381 39.0076 26.3777C39.2473 26.2975 39.4871 26.1379 39.6467 25.9775H39.8071L39.4871 27.2574C39.2473 27.4178 38.9282 27.4972 38.7678 27.4972C38.528 27.5783 38.2081 27.5783 37.8881 27.5783ZM42.5247 24.62C42.6843 24.3 42.8447 24.1405 43.0042 23.8998C43.244 23.7394 43.4838 23.6601 43.8037 23.6601C44.0435 23.6601 44.2031 23.7403 44.3626 23.8998C44.5231 23.98 44.5231 24.1396 44.5231 24.3794V24.62H42.5247ZM44.4428 27.498C44.7628 27.4178 45.0026 27.3376 45.3217 27.2583L45.5615 26.0586H45.4019C45.2415 26.219 45.0017 26.2984 44.6826 26.3786C44.3626 26.539 44.1229 26.539 43.8037 26.539C43.3242 26.539 43.0042 26.4588 42.7645 26.2992C42.5247 26.1388 42.4445 25.899 42.4445 25.5808V25.5006H45.8021C45.8823 25.3401 45.8823 25.1004 45.9625 24.9408C45.9625 24.7804 46.0419 24.6208 46.0419 24.3811C46.0419 23.9015 45.8021 23.5014 45.4821 23.1831C45.1621 22.9433 44.6033 22.7829 43.9633 22.7829C43.5253 22.7777 43.0906 22.8592 42.6843 23.0227C42.3643 23.1831 42.0443 23.3427 41.8046 23.5824C41.4854 23.9007 41.325 24.1405 41.1655 24.5406C41.0853 24.8606 41.0051 25.2608 41.0051 25.6601C41.0051 26.2984 41.1655 26.7787 41.645 27.0987C42.0443 27.4187 42.6041 27.5783 43.4036 27.5783C43.8038 27.5783 44.1237 27.5783 44.4428 27.498V27.498ZM55.874 21.422L55.6342 22.5423H52.8364L52.5966 23.6601H55.1547L54.9149 24.7804H52.2766L51.9567 26.2984H54.7545L54.5147 27.498H50.1187L51.5573 21.422H55.874V21.422ZM57.9525 25.1806L56.6735 22.9416H58.1923L58.9918 24.3L60.2708 22.9416H61.9492L59.6309 25.1806L60.9099 27.498H59.3109L58.5916 26.0586L57.2332 27.498H55.554L57.9525 25.1806ZM64.5073 27.5783C64.1873 27.5783 63.8673 27.5783 63.6276 27.498C63.3887 27.4178 63.148 27.2583 62.9083 27.0979C62.7479 26.9375 62.5883 26.7779 62.4287 26.5381C62.3297 26.2556 62.2756 25.9594 62.2683 25.6601C62.2683 25.2599 62.3485 24.8598 62.5081 24.5406C62.6685 24.2207 62.9083 23.9007 63.148 23.6609C63.468 23.3427 63.7871 23.1822 64.1873 23.0227C64.5935 22.8587 65.0283 22.7772 65.4664 22.7829C65.7863 22.7829 66.0261 22.7829 66.3452 22.8631C66.585 22.9433 66.8247 23.0235 67.0645 23.1831L66.7445 24.3811H66.585C66.4182 24.2219 66.2298 24.0872 66.0252 23.9809C65.7855 23.9007 65.5457 23.8205 65.3059 23.8205C64.9058 23.8205 64.5064 23.9809 64.1865 24.3C63.9467 24.62 63.7863 25.0202 63.7863 25.5799C63.7863 25.8982 63.8665 26.1379 64.0261 26.2984C64.2658 26.4588 64.5056 26.5381 64.8256 26.5381C65.1455 26.5381 65.3853 26.5381 65.6251 26.3777C65.8648 26.2975 66.1046 26.1379 66.2642 25.9775H66.4246L66.1046 27.2574C65.8648 27.4178 65.5449 27.4972 65.3853 27.4972C65.1464 27.5783 64.8264 27.5783 64.5073 27.5783ZM69.5432 24.62C69.6226 24.3 69.783 24.1405 69.9426 23.8998C70.1823 23.7394 70.4221 23.6601 70.7421 23.6601C70.9818 23.6601 71.1423 23.7403 71.3018 23.8998C71.4622 23.98 71.5416 24.1396 71.5416 24.3794C71.5416 24.3794 71.5416 24.4596 71.4614 24.4596V24.62H69.5432V24.62ZM71.382 27.498C71.702 27.4178 71.9409 27.3376 72.2609 27.2583L72.5006 26.0586H72.3402C72.1798 26.219 71.9401 26.2984 71.6209 26.3786C71.301 26.539 71.0612 26.539 70.7412 26.539C70.2617 26.539 69.9417 26.4588 69.7019 26.2992C69.4622 26.1388 69.382 25.899 69.382 25.5808V25.5006H72.7396C72.8198 25.3401 72.8991 25.1004 72.8991 24.9408C72.8991 24.7813 72.9793 24.6208 72.9793 24.3811C72.9793 23.9015 72.8189 23.5014 72.4196 23.1831C72.0996 22.9433 71.5399 22.7829 70.9008 22.7829C70.4212 22.7829 70.0219 22.8631 69.7019 23.0227C69.3026 23.1831 68.9826 23.3427 68.7429 23.5824C68.5031 23.9007 68.2633 24.1405 68.1029 24.5406C68.0227 24.8606 67.9434 25.2608 67.9434 25.6601C67.9434 26.2984 68.1029 26.7787 68.5825 27.0987C68.9827 27.4187 69.5424 27.5783 70.3419 27.5783C70.7421 27.5783 71.062 27.5783 71.382 27.498V27.498ZM76.9777 21.1839L75.5374 27.498H74.0997L75.5374 21.1839H76.9777ZM80.0938 21.1839L78.6561 27.498H77.1373L78.6561 21.1839H80.0938ZM82.1724 24.62C82.2526 24.3 82.4121 24.1405 82.5725 23.8998C82.8123 23.7394 83.0521 23.6601 83.3729 23.6601C83.6127 23.6601 83.7731 23.7403 83.9326 23.8998C84.0931 23.98 84.1724 24.1396 84.1724 24.3794V24.4596C84.1724 24.5398 84.0922 24.5398 84.0922 24.62H82.1724V24.62ZM84.012 27.498C84.3303 27.4178 84.6502 27.3376 84.89 27.2583L85.21 26.0586H84.9702C84.8098 26.219 84.57 26.2984 84.2518 26.3786C84.012 26.539 83.692 26.539 83.372 26.539C82.8925 26.539 82.5717 26.4588 82.3319 26.2992C82.0939 26.1388 82.0137 25.899 82.0137 25.5808V25.5006H85.3704C85.4506 25.3401 85.5308 25.1004 85.5308 24.9408C85.611 24.7804 85.611 24.6208 85.611 24.3811C85.611 23.9015 85.4506 23.5014 85.0513 23.1831C84.7313 22.9433 84.2526 22.7829 83.5333 22.7829C83.0538 22.7829 82.6536 22.8631 82.3336 23.0227C81.9352 23.1831 81.6152 23.3427 81.3754 23.5824C81.1357 23.9007 80.8959 24.1405 80.7355 24.5406C80.6553 24.8606 80.5751 25.2608 80.5751 25.6601C80.5751 26.2984 80.8148 26.7787 81.215 27.0987C81.6152 27.4187 82.2534 27.5783 82.9736 27.5783C83.3721 27.5783 83.692 27.5783 84.012 27.498V27.498ZM92.0847 23.98C92.0847 24.0603 92.0847 24.1405 92.0045 24.2198V24.5398L91.2861 27.498H89.8457L90.3253 25.1797C90.4055 25.0193 90.4055 24.94 90.4055 24.7796C90.4857 24.6994 90.4857 24.5398 90.4857 24.4596C90.4857 24.2992 90.4055 24.1396 90.3253 24.0594C90.2451 23.9792 90.0855 23.9792 89.8457 23.9792H89.4456C89.2852 24.0594 89.1256 24.1396 88.8858 24.219L88.1674 27.4972H86.7271L87.7672 22.9408H89.2058L89.1256 23.4203C89.4456 23.1805 89.6853 23.1003 89.926 22.9408C90.1657 22.8606 90.4857 22.7804 90.7263 22.7804C91.2058 22.7804 91.525 22.8606 91.6845 23.1003C91.9243 23.2616 92.0847 23.5816 92.0847 23.98V23.98ZM95.4423 27.5783C95.1223 27.5783 94.8023 27.5783 94.5626 27.498C94.2908 27.4322 94.0419 27.2939 93.8424 27.0979C93.6027 26.9375 93.444 26.7779 93.3637 26.5381C93.2835 26.2984 93.2033 25.9784 93.2033 25.6601C93.2033 25.2599 93.2835 24.8598 93.4431 24.5406C93.6018 24.2207 93.7614 23.9007 94.0813 23.6609C94.3211 23.3427 94.7213 23.1822 95.1215 23.0227C95.5216 22.8631 95.9201 22.7829 96.3997 22.7829C96.6394 22.7829 96.9594 22.7829 97.2 22.8631C97.52 22.9433 97.7598 23.0235 98.0004 23.1831L97.6804 24.3811H97.4406C97.2802 24.2207 97.1207 24.0611 96.9611 23.9809C96.7213 23.9007 96.4816 23.8205 96.2409 23.8205C95.7614 23.8205 95.4423 23.9809 95.1223 24.3C94.8826 24.62 94.7221 25.0202 94.7221 25.5799C94.7221 25.8982 94.8023 26.1379 94.9619 26.2984C95.1215 26.4588 95.4414 26.5381 95.7606 26.5381C96.0805 26.5381 96.3203 26.5381 96.5609 26.3777C96.8007 26.2975 96.9611 26.1379 97.1207 25.9775H97.3604L97.0405 27.2574C96.7205 27.4178 96.4807 27.4972 96.2401 27.4972C96.0805 27.5783 95.7606 27.5783 95.4423 27.5783V27.5783ZM100.079 24.62C100.159 24.3 100.319 24.1405 100.558 23.8998C100.717 23.7394 101.037 23.6601 101.277 23.6601C101.597 23.6601 101.756 23.7403 101.917 23.8998C101.997 23.98 102.077 24.1396 102.077 24.3794V24.62H100.079ZM101.917 27.498L102.875 27.2583L103.115 26.0586H102.956C102.716 26.219 102.477 26.2984 102.236 26.3786C101.916 26.539 101.596 26.539 101.276 26.539C100.876 26.539 100.476 26.4588 100.238 26.2992C100.077 26.1388 99.9177 25.899 99.9177 25.5808V25.5006H103.354C103.354 25.3401 103.434 25.1004 103.514 24.9408V24.3811C103.514 23.9015 103.354 23.5014 103.035 23.1831C102.636 22.9433 102.157 22.7829 101.436 22.7829C101.036 22.7829 100.636 22.8631 100.238 23.0227C99.8383 23.1831 99.5183 23.3427 99.2786 23.5824C99.0388 23.9007 98.8784 24.1405 98.7188 24.5406C98.5584 24.8606 98.479 25.2608 98.479 25.6601C98.479 26.2984 98.7188 26.7787 99.119 27.0987C99.5985 27.4187 100.159 27.5783 100.957 27.5783C101.277 27.5783 101.597 27.5783 101.917 27.498V27.498Z" fill="#3B5998"/>
</g>
<defs>
<clipPath id="clip0_6704_40">
<rect width="150" height="28" fill="white"/>
</clipPath>
</defs>
</svg>
